<svg id="Layer_1" data-name="Layer 1" xmlns="http://www.w3.org/2000/svg" viewBox="0 0 1443.06 298.72"><defs><style>.cls-1{fill:#ee5525;}</style></defs><path class="cls-1" d="M234.68,152.5c0,79.23-53,133.42-131.77,133.42H12.59V19.09h90.32C181.73,19.09,234.68,73.27,234.68,152.5Zm-31.2,0c0-69.79-50.09-103-100.57-103H43.38V255.54h59.53C153.39,255.54,203.48,222.29,203.48,152.5Z"/><path class="cls-1" d="M259.29,285.92V19.09h30.79V285.92Z"/><path class="cls-1" d="M352.07,47.82v90.72H485.48v28.74H352.07v89.9h142v28.74H321.28V19.09H494.1V47.82Z"/><path class="cls-1" d="M719.46,47.82h-87v238.1H601.64V47.82h-87V19.09H719.46Z"/><path class="cls-1" d="M739.15,19.09h53V126.64H905.82V19.09h53.36V285.92H905.82V178.36H792.11V285.92h-53Z"/><path class="cls-1" d="M983.8,191.5V19.09h53V185.75c0,36.95,23.4,51.72,50.49,51.72s50.5-14.77,50.5-51.72V19.09h53V191.5c0,53-36.94,97.7-103.45,97.7S983.8,244.46,983.8,191.5Z"/><path class="cls-1" d="M1215.32,19.09H1339.7c41,0,77.59,26.68,77.59,75.12,0,25.45-9.86,42.69-25,53.37,20.52,11.49,34.89,31.6,34.89,61.16,0,48.44-39,77.18-80.05,77.18H1215.32Zm115.76,108c19.3,0,31.61-11.5,31.61-30s-12.31-29.56-31.61-29.56h-62.81v59.53Zm7.39,110.42c21.35,0,34.07-14.77,34.07-33.24S1359,171,1338.47,171h-70.2v66.5Z"/></svg>